HIERARCHY
ROOT Hips
{
  OFFSET 71.7574 47.5266 353.468
  CHANNELS 6 Xposition Yposition Zposition Zrotation Xrotation Yrotation
  JOINT Spine
  {
    OFFSET 0 0 0
    CHANNELS 3 Zrotation Xrotation Yrotation
    JOINT Spine1
    {
      OFFSET 19 0 0
      CHANNELS 3 Zrotation Xrotation Yrotation
      JOINT Neck
      {
        OFFSET 22.5 0.6 0
        CHANNELS 3 Zrotation Xrotation Yrotation
        JOINT Head
        {
          OFFSET 14 0.0308777 0
          CHANNELS 3 Zrotation Xrotation Yrotation
          End Site
          {
            OFFSET 17 0 0
          }
        }
      }
      JOINT LeftShoulder
      {
        OFFSET 19.8 3.7 4.3
        CHANNELS 3 Zrotation Xrotation Yrotation
        JOINT LeftArm
        {
          OFFSET 8 0 0
          CHANNELS 3 Zrotation Xrotation Yrotation
          JOINT LeftForeArm
          {
            OFFSET 15.2 0 0
            CHANNELS 3 Zrotation Xrotation Yrotation
            JOINT LeftHand
            {
              OFFSET 17.8 0 0
              CHANNELS 3 Zrotation Xrotation Yrotation
              End Site
              {
                OFFSET 7.2 0 0
              }
            }
          }
        }
      }
      JOINT RightShoulder
      {
        OFFSET 19.8 3.7 -4.3
        CHANNELS 3 Zrotation Xrotation Yrotation
        JOINT RightArm
        {
          OFFSET 8 0 0.151654
          CHANNELS 3 Zrotation Xrotation Yrotation
          JOINT RightForeArm
          {
            OFFSET 15.2 0 0
            CHANNELS 3 Zrotation Xrotation Yrotation
            JOINT RightHand
            {
              OFFSET 17.8 0 0
              CHANNELS 3 Zrotation Xrotation Yrotation
              End Site
              {
                OFFSET 7.2 0 0
              }
            }
          }
        }
      }
    }
  }
  JOINT LeftUpLeg
  {
    OFFSET 5.98425 -7.666 4.78879
    CHANNELS 3 Zrotation Xrotation Yrotation
    JOINT LeftLeg
    {
      OFFSET 16 0 0
      CHANNELS 3 Zrotation Xrotation Yrotation
      JOINT LeftFoot
      {
        OFFSET 18 0 0
        CHANNELS 3 Zrotation Xrotation Yrotation
        End Site
        {
          OFFSET 0 -10.8 0
        }
      }
    }
  }
  JOINT RightUpLeg
  {
    OFFSET 5.98425 -7.66598 -4.78879
    CHANNELS 3 Zrotation Xrotation Yrotation
    JOINT RightLeg
    {
      OFFSET 16 0 0
      CHANNELS 3 Zrotation Xrotation Yrotation
      JOINT RightFoot
      {
        OFFSET 18 0 0
        CHANNELS 3 Zrotation Xrotation Yrotation
        End Site
        {
          OFFSET 0 -10.8 0
        }
      }
    }
  }
  JOINT Tail
  {
    OFFSET 6.83696 -0.722574 0
    CHANNELS 3 Zrotation Xrotation Yrotation
    JOINT Tail1
    {
      OFFSET 12 0 0
      CHANNELS 3 Zrotation Xrotation Yrotation
      End Site
      {
        OFFSET 12 0 0
      }
    }
  }
}
MOTION
Frames:	14
Frame Time:	0.0166667
36.874 44.9446 -268.266 -16.5042 -2.12632 26.5126 -146.48 -3.3893 -13.5615 -34.6333 -1.24988 6.73687 -22.4933 -19.0078 10.1283 -102.047 71.2617 102.487 -108.75 -33.1834 -140.578 118.761 -47.2717 -128.258 -57.8416 15.5046 -9.39627 -8.5463 1.3344 -11.9326 75.4983 -29.1362 43.2242 36.692 -70.4297 -44.7255 -58.0875 -17.7494 -0.830109 -4.00586 0.382111 5.29471 -128.852 1.65944 -28.7271 85.9439 15.98 11.2093 38.7266 -3.73043 -7.42037 -130.906 3.04768 -1.59131 86.1035 -3.08201 -4.38445 50.1944 0.422949 -1.58502 -47.1061 -1.86581 20.1944 4.54755 -45.8872 8.01647 
36.791 44.9421 -268.334 -16.4331 -1.92358 27.1698 -146.536 -3.37952 -14.0312 -34.7955 -1.47661 7.52715 -22.7102 -18.6318 10.1268 -103.087 72.3234 102.514 -108.838 -33.2573 -140.672 119.178 -47.6057 -127.969 -58.0126 15.5444 -9.16682 -8.56687 1.40555 -12.4626 75.6858 -28.8122 43.0917 38.4255 -70.8988 -42.0893 -58.8896 -17.9175 -1.1117 -3.85901 0.499701 4.85632 -129.035 1.99222 -28.9366 85.7193 15.885 11.3313 38.5904 -3.74485 -7.45613 -130.721 3.54524 -1.53233 85.7911 -3.10409 -4.59185 49.9334 0.430159 -1.55006 -47.3812 -0.987317 18.8427 4.26374 -45.6385 7.80048 
36.7148 44.9271 -268.417 -16.3556 -2.11405 27.8781 -146.313 -3.45226 -14.2203 -35.1568 -1.80011 8.14518 -23.0437 -18.3171 9.81829 -104.162 72.7162 102.797 -108.784 -33.207 -140.624 119.995 -47.9412 -127.438 -57.9203 15.6528 -8.92399 -8.48923 1.46098 -12.9418 76.4113 -27.8605 43.3524 37.8354 -71.9682 -40.4313 -59.7556 -17.1703 -1.7418 -3.28876 0.408359 5.56723 -129.024 2.06569 -29.2778 85.3325 16.2983 11.7932 38.5794 -3.87833 -7.66014 -130.689 3.55173 -1.5684 85.9282 -2.98363 -4.61144 49.8864 0.396437 -1.58209 -47.7138 0.319169 17.5306 3.68168 -45.3237 7.13272 
36.6391 44.8998 -268.523 -16.164 -2.2657 28.6489 -146.43 -3.53765 -14.2738 -35.1457 -2.14299 8.62836 -23.608 -17.7927 9.58987 -106.241 73.9013 103.232 -108.793 -33.4237 -140.179 120.604 -48.2027 -126.399 -57.6154 16.2174 -9.01452 -8.80312 1.44571 -12.9419 76.4268 -27.8026 43.2592 37.3801 -72.3352 -40.1763 -59.7674 -17.0454 -1.98805 -3.2998 0.430674 5.57747 -129.296 2.20815 -29.4076 85.0936 16.5727 11.9918 38.6755 -3.96486 -7.78408 -130.778 3.61428 -1.63552 86.0769 -2.71294 -4.60081 49.8327 0.354945 -1.62642 -48.2248 1.98154 15.765 2.96479 -44.6967 6.26583 
36.6051 44.8781 -268.652 -16.123 -2.46485 29.264 -146.703 -3.65222 -14.7236 -34.6996 -2.56914 9.5652 -24.5634 -17.1016 9.00844 -108.675 74.855 104.158 -108.92 -33.4257 -140.541 121.597 -48.4739 -126.478 -57.7507 15.6647 -8.45888 -8.18241 1.60548 -14.1833 76.2655 -27.9905 43.137 38.1587 -72.0873 -39.3771 -59.5842 -17.0482 -1.96286 -3.34381 0.506232 4.94667 -129.422 2.37772 -29.5479 84.8731 17.057 12.0885 38.8374 -4.06773 -7.91259 -130.794 3.87266 -1.50799 86.2565 -2.35826 -4.66973 49.8042 0.312333 -1.66658 -48.6983 3.61389 13.9985 2.15762 -44.0349 5.28569 
36.557 44.8534 -268.774 -16.0278 -2.88556 29.8867 -146.71 -3.82039 -14.8455 -34.5276 -2.94879 10.0761 -25.508 -16.6072 8.61164 -112.371 76.2859 105.378 -108.858 -33.5555 -140.082 122.833 -48.4069 -125.149 -56.9719 16.41 -8.52697 -8.57456 1.56197 -14.0723 76.3028 -27.9466 43.1641 37.6174 -72.4748 -39.1895 -59.5701 -16.6582 -2.15889 -3.15697 0.475082 5.07584 -129.398 2.37036 -29.5045 84.5484 17.5949 12.2194 38.8999 -4.18713 -8.06984 -130.797 3.96682 -1.35829 86.5471 -1.90967 -4.67809 49.642 0.238279 -1.73215 -49.0042 5.53867 12.1892 1.2587 -42.7559 4.10191 
36.502 44.8218 -268.876 -15.969 -3.39549 30.5145 -146.477 -3.89682 -14.75 -34.7106 -3.17125 10.293 -26.5301 -15.9896 7.93019 -114.863 77.7192 106.29 -108.878 -33.4413 -140.386 123.964 -48.6401 -124.834 -56.8216 16.0443 -8.17402 -8.05989 1.63936 -14.7908 76.5614 -27.5892 43.2133 37.9603 -73.1206 -37.6762 -59.7425 -16.3527 -2.52038 -3.14317 0.438137 5.46478 -129.367 2.3076 -29.428 84.2385 18.3135 12.3881 39.0983 -4.3479 -8.27904 -130.786 3.92839 -1.35439 86.9686 -1.2541 -4.61883 49.3771 0.11582 -1.85378 -49.3353 7.63828 10.3045 0.62443 -41.1131 2.97856 
36.4709 44.8197 -268.95 -15.9332 -3.65412 30.9563 -146.551 -3.96598 -14.8648 -34.6073 -3.39656 10.6723 -27.6028 -15.5389 7.07364 -117.902 78.299 107.687 -108.822 -33.3825 -140.35 125.399 -48.9795 -124.612 -56.5682 15.6914 -7.55586 -7.6676 1.67544 -15.4072 76.569 -27.5955 43.2595 39.5885 -72.5775 -36.4437 -59.538 -16.5261 -2.3539 -3.23873 0.584417 4.53291 -129.463 2.31025 -29.4602 84.1201 18.5212 12.5129 39.2137 -4.4248 -8.38379 -130.823 4.22698 -1.24942 87.1745 -0.201623 -4.66459 49.415 -0.00733056 -1.99791 -49.6513 9.41108 8.43462 -0.0970761 -39.0373 1.76428 
36.4601 44.8267 -269.03 -15.9209 -3.75322 31.1935 -146.765 -4.07998 -15.1937 -34.4004 -3.62454 11.1267 -28.7199 -14.6282 5.83209 -121.39 78.0931 109.512 -108.725 -33.3922 -140.048 126.912 -49.0428 -123.84 -55.8819 15.5123 -7.29804 -7.44952 1.67279 -15.6943 76.4731 -27.6815 43.117 40.3749 -72.0784 -35.8313 -59.1234 -16.8059 -2.22149 -3.29898 0.720904 3.68358 -129.546 2.3782 -29.3771 84.094 18.2952 12.4564 39.209 -4.36589 -8.29878 -130.572 3.93371 -1.33426 87.032 -1.04283 -4.5634 49.0017 0.0746321 -1.86729 -49.9841 10.9238 6.62076 -0.724074 -36.6587 0.640115 
36.5061 44.8563 -269.072 -15.9546 -3.8858 31.3886 -146.904 -4.10218 -15.263 -34.1838 -3.67974 11.2513 -29.8501 -14.06 4.74565 -123.154 77.9071 110.241 -108.643 -33.3396 -139.925 128.745 -49.1523 -123.69 -54.9803 15.781 -6.55915 -7.79116 1.69553 -16.0494 76.3874 -27.781 43.0514 39.7151 -71.998 -36.1478 -58.6621 -16.7075 -2.21574 -3.05597 0.759307 3.45494 -129.484 2.34395 -29.0664 83.9068 18.2033 12.2869 39.2538 -4.34751 -8.25607 -130.427 4.29061 -0.437644 86.8309 -1.63416 -4.94507 49.3057 0.17959 -1.77101 -50.2336 12.3765 4.90876 -1.13422 -34.0581 -0.304487 
36.5577 44.8668 -269.094 -16.0829 -3.9346 31.5159 -146.89 -4.04019 -15.0488 -34.3315 -3.46174 10.7612 -30.7599 -14.4086 3.98702 -124.162 76.6045 110.225 -108.582 -33.1738 -140.108 129.874 -49.2459 -123.632 -54.4069 15.4382 -6.25979 -7.4704 1.65188 -16.1008 76.5974 -27.5549 43.2614 39.269 -71.8351 -36.3604 -58.2002 -16.7668 -2.21918 -3.00021 0.839652 3.07857 -129.38 2.34927 -28.9909 83.8466 18.1424 12.2081 39.198 -4.34528 -8.2543 -130.358 4.58559 -0.193645 86.7873 -1.50871 -5.1144 49.5531 0.189338 -1.78601 -50.4241 13.6518 3.24832 -1.38757 -31.3839 -1.08219 
36.6124 44.878 -269.108 -16.2219 -3.9673 31.4999 -146.75 -4.13386 -14.9181 -34.7811 -3.36268 10.2353 -31.4034 -14.7098 3.41156 -124.211 75.2543 109.859 -108.411 -32.9296 -140.141 130.852 -49.2307 -123.563 -53.6232 15.2554 -6.0286 -7.55603 1.67061 -16.2072 76.8071 -27.1966 43.1191 40.7735 -71.3156 -35.0205 -57.9959 -16.981 -2.09341 -2.94045 0.973359 2.36259 -129.277 2.40076 -28.8639 83.8929 17.9534 12.1201 39.1376 -4.31848 -8.2259 -130.291 4.5621 -0.321595 86.7685 -1.37783 -5.06797 49.6052 0.169706 -1.80845 -50.5774 14.7777 1.70598 -1.5539 -28.4879 -1.7613 
36.7035 44.9136 -269.145 -16.5534 -3.99174 31.3719 -146.627 -4.29755 -15.1223 -34.8367 -3.37451 10.1293 -32.2526 -14.6818 2.55779 -123.441 73.785 109.198 -108.36 -32.8987 -140.061 131.705 -49.1595 -123.407 -53.0102 14.9054 -5.88973 -7.24675 1.63069 -16.2149 76.6089 -27.436 42.9876 38.6957 -71.5743 -36.5194 -57.5472 -17.0176 -2.21742 -2.61486 1.06615 1.9665 -129.054 2.42104 -28.8985 83.9137 17.6589 12.067 39.2143 -4.2719 -8.15901 -129.902 4.7101 -0.308345 86.5059 -1.53141 -5.08916 49.5421 0.217204 -1.75407 -50.4359 15.6842 0.202041 -1.65568 -25.8885 -2.13705 
36.7887 44.9088 -269.146 -16.8266 -3.92578 31.1982 -146.444 -4.4572 -15.0168 -35.2497 -3.19058 9.36811 -32.8999 -14.9914 2.45017 -122.489 73.4824 108.967 -108.268 -32.7047 -140.215 132.332 -49.2759 -123.683 -52.5155 14.8354 -5.74148 -7.04122 1.61262 -16.3246 76.769 -27.1998 42.9774 39.9463 -70.7822 -35.9275 -57.3125 -17.4905 -1.90635 -2.56171 1.23496 0.91387 -128.984 2.50475 -28.8961 84.1071 17.5354 11.8797 39.1973 -4.2226 -8.08505 -129.777 4.716 -0.602022 86.4627 -1.37883 -5.00259 49.6243 0.204286 -1.77324 -50.547 16.5029 -1.16976 -1.8262 -23.311 -2.55458 
